<svg width="36" height="36" viewBox="0 0 36 36" fill="none" xmlns="http://www.w3.org/2000/svg">
<path d="M18.0021 0C13.1095 0 12.4998 0.023625 10.585 0.104625C8.6624 0.199125 7.3619 0.49725 6.2144 0.94275C5.01341 1.39615 3.92577 2.10602 3.02727 3.02288C2.10786 3.91927 1.39759 5.00753 0.947145 6.21C0.501645 7.3575 0.20352 8.658 0.10902 10.5806C0.0223945 12.4965 0.00439453 13.1051 0.00439453 17.9978C0.00439453 22.8904 0.0280195 23.5001 0.10902 25.4149C0.20352 27.3319 0.501645 28.638 0.947145 29.7855C1.40054 30.9865 2.11041 32.0741 3.02727 32.9726C3.92367 33.8921 5.01192 34.6023 6.2144 35.0528C7.3619 35.4926 8.66802 35.7964 10.585 35.8909C12.5009 35.9775 13.1095 35.9955 18.0021 35.9955C22.8948 35.9955 23.5045 35.9719 25.4193 35.8909C27.3363 35.7964 28.6424 35.4915 29.7899 35.0528C30.9909 34.5994 32.0785 33.8895 32.977 32.9726C33.8976 32.0772 34.6081 30.9887 35.0571 29.7855C35.497 28.638 35.8008 27.3319 35.8953 25.4149C35.9819 23.499 35.9999 22.8904 35.9999 17.9978C35.9999 13.1051 35.9763 12.4954 35.8953 10.5806C35.8008 8.66363 35.4959 7.35075 35.0571 6.21C34.6037 5.00902 33.8939 3.92137 32.977 3.02288C32.0816 2.10228 30.9931 1.39183 29.7899 0.94275C28.6424 0.49725 27.3363 0.199125 25.4193 0.104625C23.5034 0.018 22.8948 0 18.0021 0ZM18.0021 3.24C22.807 3.24 23.3808 3.26363 25.2798 3.34463C27.0314 3.42675 27.9854 3.71925 28.6188 3.96675C29.4018 4.25579 30.1105 4.71583 30.6933 5.31338C31.2898 5.89368 31.7481 6.60077 32.0343 7.38225C32.2818 8.01563 32.5743 8.96963 32.6564 10.7213C32.7374 12.6203 32.761 13.1951 32.761 17.9989C32.761 22.8026 32.7374 23.3775 32.6496 25.2765C32.5551 27.0281 32.2626 27.9821 32.0163 28.6155C31.6754 29.4604 31.2951 30.051 30.6674 30.69C30.0827 31.2838 29.3744 31.7416 28.5929 32.031C27.9674 32.2785 26.9999 32.571 25.2415 32.6531C23.3324 32.7341 22.7699 32.7578 17.9526 32.7578C13.1354 32.7578 12.574 32.7341 10.6626 32.6464C8.91102 32.5519 7.94465 32.2594 7.31127 32.013C6.45627 31.6721 5.87015 31.2919 5.2424 30.6641C4.60902 30.0308 4.20627 29.4278 3.89577 28.5896C3.64377 27.9641 3.35577 26.9966 3.26239 25.2383C3.19827 23.3516 3.16789 22.7666 3.16789 17.9719C3.16789 13.1794 3.19827 12.5933 3.26239 10.683C3.35577 8.92463 3.64377 7.95938 3.89577 7.33163C4.20627 6.4755 4.61015 5.8905 5.2424 5.25713C5.86902 4.6305 6.45627 4.2255 7.31127 3.90825C7.94465 3.66188 8.8874 3.36938 10.6458 3.28163C12.5549 3.213 13.1174 3.18825 17.9279 3.18825L18.0021 3.24ZM18.0021 8.76038C16.7887 8.75993 15.587 8.99862 14.4658 9.4628C13.3446 9.92698 12.3258 10.6075 11.4678 11.4656C10.6097 12.3237 9.92912 13.3424 9.46494 14.4636C9.00076 15.5848 8.76208 16.7865 8.76252 18C8.76208 19.2135 9.00076 20.4152 9.46494 21.5364C9.92912 22.6576 10.6097 23.6763 11.4678 24.5344C12.3258 25.3925 13.3446 26.073 14.4658 26.5372C15.587 27.0014 16.7887 27.2401 18.0021 27.2396C19.2156 27.2401 20.4173 27.0014 21.5385 26.5372C22.6597 26.073 23.6785 25.3925 24.5365 24.5344C25.3946 23.6763 26.0752 22.6576 26.5393 21.5364C27.0035 20.4152 27.2422 19.2135 27.2418 18C27.2422 16.7865 27.0035 15.5848 26.5393 14.4636C26.0752 13.3424 25.3946 12.3237 24.5365 11.4656C23.6785 10.6075 22.6597 9.92698 21.5385 9.4628C20.4173 8.99862 19.2156 8.75993 18.0021 8.76038V8.76038ZM18.0021 23.9996C14.6856 23.9996 12.0025 21.3165 12.0025 18C12.0025 14.6835 14.6856 12.0004 18.0021 12.0004C21.3186 12.0004 24.0018 14.6835 24.0018 18C24.0018 21.3165 21.3186 23.9996 18.0021 23.9996ZM29.7741 8.39138C29.7736 8.96475 29.5454 9.51444 29.1397 9.91966C28.7341 10.3249 28.1841 10.5525 27.6108 10.5525C27.3273 10.5525 27.0465 10.4967 26.7846 10.3882C26.5227 10.2797 26.2847 10.1207 26.0842 9.92018C25.8837 9.71971 25.7247 9.48172 25.6162 9.21979C25.5077 8.95787 25.4519 8.67714 25.4519 8.39363C25.4519 8.11012 25.5077 7.82939 25.6162 7.56746C25.7247 7.30554 25.8837 7.06754 26.0842 6.86707C26.2847 6.6666 26.5227 6.50758 26.7846 6.39909C27.0465 6.29059 27.3273 6.23475 27.6108 6.23475C28.7999 6.23475 29.7741 7.20225 29.7741 8.39138V8.39138Z" fill="white"/>
</svg>
