<svg width="20" height="20" viewBox="0 0 20 20" fill="none" xmlns="http://www.w3.org/2000/svg">
<path d="M10.0012 6.10352e-05C7.28307 6.10352e-05 6.94432 0.013186 5.88057 0.0581861C4.81244 0.110686 4.08994 0.276311 3.45244 0.523811C2.78523 0.775699 2.18098 1.17007 1.68182 1.67944C1.17103 2.17744 0.776439 2.78202 0.526191 3.45006C0.278691 4.08756 0.113066 4.81006 0.0605664 5.87819C0.0124414 6.94256 0.00244141 7.28069 0.00244141 9.99881C0.00244141 12.7169 0.0155664 13.0557 0.0605664 14.1194C0.113066 15.1844 0.278691 15.9101 0.526191 16.5476C0.778079 17.2148 1.17245 17.819 1.68182 18.3182C2.17981 18.829 2.7844 19.2236 3.45244 19.4738C4.08994 19.7182 4.81557 19.8869 5.88057 19.9394C6.94494 19.9876 7.28307 19.9976 10.0012 19.9976C12.7193 19.9976 13.0581 19.9844 14.1218 19.9394C15.1868 19.8869 15.9124 19.7176 16.5499 19.4738C17.2172 19.2219 17.8214 18.8276 18.3206 18.3182C18.832 17.8207 19.2267 17.216 19.4762 16.5476C19.7206 15.9101 19.8893 15.1844 19.9418 14.1194C19.9899 13.0551 19.9999 12.7169 19.9999 9.99881C19.9999 7.28069 19.9868 6.94194 19.9418 5.87819C19.8893 4.81319 19.7199 4.08381 19.4762 3.45006C19.2243 2.78285 18.8299 2.1786 18.3206 1.67944C17.8231 1.16799 17.2184 0.773299 16.5499 0.523811C15.9124 0.276311 15.1868 0.110686 14.1218 0.0581861C13.0574 0.010061 12.7193 6.10352e-05 10.0012 6.10352e-05ZM10.0012 1.80006C12.6706 1.80006 12.9893 1.81319 14.0443 1.85819C15.0174 1.90381 15.5474 2.06631 15.8993 2.20381C16.3343 2.36439 16.7281 2.61997 17.0518 2.95194C17.3832 3.27433 17.6378 3.66715 17.7968 4.10131C17.9343 4.45319 18.0968 4.98319 18.1424 5.95631C18.1874 7.01131 18.2006 7.33069 18.2006 9.99944C18.2006 12.6682 18.1874 12.9876 18.1387 14.0426C18.0862 15.0157 17.9237 15.5457 17.7868 15.8976C17.5974 16.3669 17.3862 16.6951 17.0374 17.0501C16.7126 17.38 16.3191 17.6343 15.8849 17.7951C15.5374 17.9326 14.9999 18.0951 14.0231 18.1407C12.9624 18.1857 12.6499 18.1988 9.97369 18.1988C7.29744 18.1988 6.98557 18.1857 5.92369 18.1369C4.95057 18.0844 4.41369 17.9219 4.06182 17.7851C3.58682 17.5957 3.26119 17.3844 2.91244 17.0357C2.56057 16.6838 2.33682 16.3488 2.16432 15.8832C2.02432 15.5357 1.86432 14.9982 1.81244 14.0213C1.77682 12.9732 1.75994 12.6482 1.75994 9.98444C1.75994 7.32194 1.77682 6.99631 1.81244 5.93506C1.86432 4.95819 2.02432 4.42194 2.16432 4.07319C2.33682 3.59756 2.56119 3.27256 2.91244 2.92069C3.26057 2.57256 3.58682 2.34756 4.06182 2.17131C4.41369 2.03444 4.93744 1.87194 5.91432 1.82319C6.97494 1.78506 7.28744 1.77131 9.95994 1.77131L10.0012 1.80006ZM10.0012 4.86694C9.32703 4.86669 8.65943 4.9993 8.03654 5.25717C7.41365 5.51505 6.84768 5.89314 6.37098 6.36985C5.89427 6.84655 5.51618 7.41252 5.2583 8.03541C5.00042 8.6583 4.86782 9.3259 4.86807 10.0001C4.86782 10.6742 5.00042 11.3418 5.2583 11.9647C5.51618 12.5876 5.89427 13.1536 6.37098 13.6303C6.84768 14.107 7.41365 14.4851 8.03654 14.743C8.65943 15.0008 9.32703 15.1334 10.0012 15.1332C10.6754 15.1334 11.343 15.0008 11.9658 14.743C12.5887 14.4851 13.1547 14.107 13.6314 13.6303C14.1081 13.1536 14.4862 12.5876 14.7441 11.9647C15.002 11.3418 15.1346 10.6742 15.1343 10.0001C15.1346 9.3259 15.002 8.6583 14.7441 8.03541C14.4862 7.41252 14.1081 6.84655 13.6314 6.36985C13.1547 5.89314 12.5887 5.51505 11.9658 5.25717C11.343 4.9993 10.6754 4.86669 10.0012 4.86694ZM10.0012 13.3332C8.15869 13.3332 6.66807 11.8426 6.66807 10.0001C6.66807 8.15756 8.15869 6.66694 10.0012 6.66694C11.8437 6.66694 13.3343 8.15756 13.3343 10.0001C13.3343 11.8426 11.8437 13.3332 10.0012 13.3332ZM16.5412 4.66194C16.5409 4.98048 16.4141 5.28586 16.1887 5.51098C15.9634 5.73611 15.6579 5.86256 15.3393 5.86256C15.1818 5.86256 15.0259 5.83154 14.8803 5.77127C14.7348 5.71099 14.6026 5.62265 14.4912 5.51127C14.3799 5.3999 14.2915 5.26768 14.2312 5.12217C14.171 4.97665 14.1399 4.82069 14.1399 4.66319C14.1399 4.50568 14.171 4.34972 14.2312 4.20421C14.2915 4.05869 14.3799 3.92647 14.4912 3.8151C14.6026 3.70373 14.7348 3.61538 14.8803 3.55511C15.0259 3.49484 15.1818 3.46381 15.3393 3.46381C15.9999 3.46381 16.5412 4.00131 16.5412 4.66194Z" fill="#212121"/>
</svg>
