<svg width="60" height="60" viewBox="0 0 60 60" fill="none" xmlns="http://www.w3.org/2000/svg">
<path d="M60 60H0V0H60V60ZM1.0386 58.9614H58.9614V1.0386H1.0386V58.9614Z" fill="#212121"/>
<path d="M11.8141 25.2224H10.8326V33.5572C10.8326 33.7545 10.7651 33.8324 10.5574 33.8324H8.73984C8.63598 33.8324 8.57886 33.7856 8.57886 33.6818V32.9703C8.57886 32.8509 8.63598 32.8042 8.73984 32.8042H9.77844V24.4954C9.77844 24.3084 9.86153 24.2149 10.0485 24.2149H11.8245C11.8471 24.2126 11.87 24.2153 11.8915 24.2227C11.913 24.2302 11.9326 24.2422 11.9489 24.2581C11.9653 24.2739 11.9779 24.2931 11.986 24.3144C11.9941 24.3356 11.9975 24.3584 11.9959 24.3811V25.0614C11.9855 25.1756 11.9439 25.2224 11.8141 25.2224ZM18.9597 33.8324H17.0798C16.8721 33.8324 16.7994 33.7545 16.7994 33.5572V24.4071C16.797 24.3851 16.7996 24.3629 16.8067 24.3421C16.8139 24.3212 16.8256 24.3021 16.841 24.2863C16.8563 24.2704 16.875 24.2582 16.8956 24.2503C16.9163 24.2425 16.9384 24.2393 16.9604 24.2409H17.703C17.7248 24.2401 17.7465 24.2439 17.7667 24.2521C17.7869 24.2602 17.8052 24.2725 17.8204 24.2882C17.8356 24.3039 17.8473 24.3225 17.8548 24.343C17.8623 24.3635 17.8654 24.3853 17.864 24.4071V32.8042H18.9597C19.0739 32.8042 19.131 32.8509 19.131 32.9703V33.6714C19.131 33.7856 19.0635 33.8324 18.9597 33.8324Z" fill="#212121"/>
<path d="M34.3985 33.8481H31.9007C31.7864 33.8481 31.7293 33.8013 31.7293 33.6819V32.9704C31.7293 32.851 31.776 32.8043 31.9007 32.8043H33.5988V26.0534H27.4814V33.8896C27.4814 34.009 27.4347 34.0558 27.3204 34.0558H26.6038C26.4896 34.0558 26.4428 34.009 26.4428 33.9052V26.0534H25.264C25.1498 26.0534 25.103 25.9859 25.103 25.8664V25.1965C25.103 25.0823 25.1342 25.0148 25.2536 25.0148H26.4428V24.0541C26.4428 23.9398 26.4896 23.8931 26.6038 23.8931H27.3204C27.4347 23.8931 27.4814 23.9398 27.4814 24.0696V25.0148H34.3829C34.5595 25.0148 34.6478 25.0927 34.6478 25.29V33.5988C34.6478 33.7546 34.5803 33.8481 34.3985 33.8481Z" fill="#212121"/>
<path d="M50.6992 33.822H41.8088C41.6218 33.822 41.5439 33.7442 41.5439 33.5676V29.6521C41.5439 29.4807 41.6218 29.4028 41.7984 29.4028H45.7347C45.9061 29.4028 45.9995 29.4911 45.9995 29.6313V32.8198H49.9358V28.1876H45.8126C45.6412 28.1876 45.5478 28.1097 45.5478 27.9332V25.2432H41.8659C41.844 25.2468 41.8215 25.2451 41.8003 25.2383C41.7791 25.2315 41.7599 25.2197 41.7442 25.204C41.7284 25.1882 41.7167 25.169 41.7099 25.1478C41.703 25.1267 41.7013 25.1042 41.7049 25.0822V24.4071C41.7013 24.3852 41.703 24.3627 41.7099 24.3415C41.7167 24.3203 41.7284 24.3011 41.7442 24.2854C41.7599 24.2696 41.7791 24.2579 41.8003 24.2511C41.8215 24.2442 41.844 24.2426 41.8659 24.2461H46.3786C46.4137 24.2413 46.4493 24.2444 46.483 24.2553C46.5166 24.2662 46.5473 24.2846 46.5728 24.3091C46.5983 24.3336 46.6179 24.3635 46.6302 24.3967C46.6424 24.4299 46.647 24.4654 46.6435 24.5006V27.1802H50.7304C50.7666 27.1752 50.8034 27.1785 50.8381 27.19C50.8728 27.2014 50.9044 27.2207 50.9305 27.2463C50.9565 27.2718 50.9764 27.3031 50.9885 27.3375C51.0007 27.372 51.0047 27.4088 51.0004 27.445V33.5364C51.003 33.576 50.9968 33.6156 50.9823 33.6524C50.9679 33.6893 50.9455 33.7226 50.9167 33.7498C50.888 33.7771 50.8536 33.7977 50.816 33.8102C50.7784 33.8226 50.7385 33.8267 50.6992 33.822V33.822ZM45.0856 30.3375H42.5254V32.851H45.0856V30.3375Z" fill="#212121"/>
</svg>
