<svg width="88" height="88" viewBox="0 0 88 88" fill="none" xmlns="http://www.w3.org/2000/svg">
<rect x="1" y="1" width="86" height="86" stroke="white" stroke-width="2"/>
<path d="M13.562 46.294C12.95 47.788 11.924 49.696 10.79 51.19L12.32 51.838C13.328 50.38 14.318 48.544 14.984 46.888C15.74 45.034 16.37 42.37 16.604 41.254C16.694 40.876 16.82 40.336 16.946 39.94L15.344 39.616C15.092 41.686 14.354 44.422 13.562 46.294ZM22.436 45.61C23.174 47.518 24.02 49.966 24.47 51.802L26.072 51.28C25.586 49.66 24.632 46.888 23.912 45.124C23.138 43.216 21.986 40.732 21.284 39.418L19.826 39.904C20.6 41.254 21.716 43.756 22.436 45.61ZM44.144 37.834H42.452C42.524 38.266 42.578 38.932 42.578 39.328C42.578 39.976 42.542 40.588 42.506 41.164H39.338C38.654 41.164 37.916 41.128 37.286 41.056V42.586C37.916 42.514 38.654 42.514 39.356 42.514H42.38C41.894 46.222 40.598 48.472 38.816 50.092C38.276 50.614 37.538 51.118 36.962 51.424L38.276 52.486C41.282 50.416 43.154 47.68 43.802 42.514H48.842C48.842 44.44 48.608 48.868 47.924 50.236C47.726 50.686 47.402 50.83 46.88 50.83C46.124 50.83 45.17 50.758 44.198 50.632L44.378 52.126C45.314 52.18 46.358 52.252 47.276 52.252C48.266 52.252 48.842 51.91 49.202 51.154C50.012 49.426 50.228 44.188 50.3 42.46C50.3 42.226 50.336 41.884 50.39 41.578L49.382 41.074C49.076 41.128 48.716 41.164 48.23 41.164H43.946C43.982 40.57 44.018 39.958 44.036 39.31C44.054 38.878 44.09 38.248 44.144 37.834ZM67.148 50.11C67.148 49.48 67.778 48.958 68.588 48.958C69.956 48.958 70.856 49.984 71 51.406C70.55 51.478 70.064 51.514 69.542 51.514C68.138 51.514 67.148 50.974 67.148 50.11ZM64.844 38.734L64.898 40.228C65.276 40.174 65.69 40.138 66.086 40.12C67.04 40.066 70.64 39.904 71.594 39.868C70.676 40.678 68.426 42.568 67.418 43.396C66.374 44.278 64.07 46.204 62.576 47.428L63.602 48.49C65.888 46.168 67.49 44.89 70.496 44.89C72.836 44.89 74.528 46.222 74.528 47.986C74.528 49.462 73.718 50.506 72.278 51.064C72.062 49.354 70.856 47.878 68.606 47.878C66.932 47.878 65.834 48.976 65.834 50.218C65.834 51.712 67.328 52.774 69.776 52.774C73.592 52.774 75.968 50.902 75.968 48.004C75.968 45.574 73.826 43.774 70.838 43.774C70.028 43.774 69.164 43.864 68.336 44.152C69.74 42.982 72.188 40.894 73.088 40.21C73.412 39.94 73.772 39.706 74.096 39.472L73.268 38.428C73.088 38.482 72.836 38.536 72.296 38.572C71.342 38.662 67.058 38.806 66.122 38.806C65.762 38.806 65.258 38.788 64.844 38.734Z" fill="white"/>
</svg>
