<svg width="60" height="60" viewBox="0 0 60 60" fill="none" xmlns="http://www.w3.org/2000/svg">
<rect x="0.5" y="0.5" width="59" height="59" stroke="#212121"/>
<path d="M11.973 29.946C11.565 30.942 10.881 32.214 10.125 33.21L11.145 33.642C11.817 32.67 12.477 31.446 12.921 30.342C13.425 29.106 13.845 27.33 14.001 26.586C14.061 26.334 14.145 25.974 14.229 25.71L13.161 25.494C12.993 26.874 12.501 28.698 11.973 29.946ZM17.889 29.49C18.381 30.762 18.945 32.394 19.245 33.618L20.313 33.27C19.989 32.19 19.353 30.342 18.873 29.166C18.357 27.894 17.589 26.238 17.121 25.362L16.149 25.686C16.665 26.586 17.409 28.254 17.889 29.49Z" fill="#212121"/>
<path d="M29.721 24.306H28.593C28.641 24.594 28.677 25.038 28.677 25.302C28.677 25.734 28.653 26.142 28.629 26.526H26.517C26.061 26.526 25.569 26.502 25.149 26.454V27.474C25.569 27.426 26.061 27.426 26.529 27.426H28.545C28.221 29.898 27.357 31.398 26.169 32.478C25.809 32.826 25.317 33.162 24.933 33.366L25.809 34.074C27.813 32.694 29.061 30.87 29.493 27.426H32.853C32.853 28.71 32.697 31.662 32.241 32.574C32.109 32.874 31.893 32.97 31.545 32.97C31.041 32.97 30.405 32.922 29.757 32.838L29.877 33.834C30.501 33.87 31.197 33.918 31.809 33.918C32.469 33.918 32.853 33.69 33.093 33.186C33.633 32.034 33.777 28.542 33.825 27.39C33.825 27.234 33.849 27.006 33.885 26.802L33.213 26.466C33.009 26.502 32.769 26.526 32.445 26.526H29.589C29.613 26.13 29.637 25.722 29.649 25.29C29.661 25.002 29.685 24.582 29.721 24.306Z" fill="#212121"/>
<path d="M44.313 33.498L44.949 34.026C45.033 33.954 45.165 33.858 45.357 33.75C46.749 33.066 48.417 31.83 49.449 30.426L48.885 29.61C47.961 30.966 46.485 32.058 45.381 32.562V25.638C45.381 25.182 45.417 24.834 45.429 24.75H44.325C44.337 24.834 44.397 25.182 44.397 25.638V32.826C44.397 33.066 44.361 33.306 44.313 33.498ZM38.817 33.438L39.717 34.05C40.725 33.21 41.493 32.034 41.853 30.75C42.177 29.55 42.225 26.982 42.225 25.65C42.225 25.29 42.273 24.93 42.285 24.786H41.181C41.229 25.038 41.265 25.302 41.265 25.662C41.265 26.994 41.253 29.394 40.905 30.486C40.545 31.65 39.825 32.718 38.817 33.438Z" fill="#212121"/>
</svg>
