<svg width="36" height="36" viewBox="0 0 36 36" fill="none" xmlns="http://www.w3.org/2000/svg">
<path d="M32.6251 8.94025C31.5493 9.40431 30.3786 9.7383 29.1728 9.86837C30.4247 9.12459 31.3622 7.94954 31.8095 6.56369C30.6347 7.26255 29.3477 7.75261 28.0056 8.01212C27.4446 7.41245 26.7662 6.93472 26.0126 6.60871C25.2589 6.2827 24.4462 6.11539 23.6251 6.1172C20.3028 6.1172 17.631 8.81017 17.631 12.1149C17.631 12.5789 17.6872 13.043 17.7786 13.4895C12.804 13.2293 8.36729 10.8527 5.41768 7.21408C4.88023 8.13206 4.59858 9.17729 4.60205 10.241C4.60205 12.3223 5.66025 14.1574 7.27393 15.2367C6.32296 15.1993 5.39427 14.9379 4.56338 14.4738V14.5477C4.56338 17.4621 6.62354 19.8774 9.36924 20.4328C8.8537 20.5667 8.32336 20.6352 7.79072 20.6367C7.40049 20.6367 7.03135 20.5981 6.65869 20.5453C7.41807 22.9219 9.62939 24.6481 12.2626 24.7043C10.2024 26.318 7.62197 27.2672 4.82002 27.2672C4.31729 27.2672 3.85322 27.2496 3.37158 27.1934C6.02939 28.8985 9.18291 29.8828 12.579 29.8828C23.604 29.8828 29.6368 20.7492 29.6368 12.8215C29.6368 12.5613 29.6368 12.3012 29.6192 12.041C30.7864 11.1867 31.8095 10.1285 32.6251 8.94025Z" fill="white"/>
</svg>
