<svg width="32" height="32" viewBox="0 0 32 32" fill="none" xmlns="http://www.w3.org/2000/svg">
<rect x="1" y="1" width="30" height="30" fill="white" stroke="white" stroke-width="2"/>
<path d="M15.5495 25.225C14.5162 25.225 13.4912 25.125 12.4745 24.925C11.4745 24.7417 10.6495 24.4917 9.99951 24.175V21.45C10.8328 21.85 11.7078 22.15 12.6245 22.35C13.5412 22.55 14.4412 22.65 15.3245 22.65C16.4412 22.65 17.2912 22.4417 17.8745 22.025C18.4578 21.6083 18.7495 21.0333 18.7495 20.3C18.7495 19.7833 18.6162 19.3583 18.3495 19.025C18.0828 18.675 17.6912 18.375 17.1745 18.125C16.6578 17.8583 15.8662 17.5167 14.7995 17.1C13.1662 16.4333 11.9828 15.6917 11.2495 14.875C10.5162 14.0583 10.1495 13.0417 10.1495 11.825C10.1495 10.875 10.4078 10.0333 10.9245 9.3C11.4412 8.56667 12.1662 8 13.0995 7.6C14.0328 7.2 15.1078 7 16.3245 7C17.3245 7 18.2078 7.08333 18.9745 7.25C19.7578 7.4 20.5245 7.64167 21.2745 7.975V10.625C19.8245 9.925 18.3578 9.575 16.8745 9.575C15.8078 9.575 14.9828 9.775 14.3995 10.175C13.8162 10.5583 13.5245 11.1083 13.5245 11.825C13.5245 12.3417 13.6578 12.7667 13.9245 13.1C14.1912 13.4167 14.5412 13.6917 14.9745 13.925C15.4245 14.1417 16.2245 14.4917 17.3745 14.975C18.5412 15.4583 19.4578 15.9333 20.1245 16.4C20.8078 16.8667 21.3162 17.4167 21.6495 18.05C21.9995 18.6667 22.1745 19.425 22.1745 20.325C22.1745 21.875 21.6162 23.0833 20.4995 23.95C19.3828 24.8 17.7328 25.225 15.5495 25.225Z" fill="black"/>
</svg>
